M48
;DRILL file {KiCad 4.0.5} date 02/14/17 17:56:44
;FORMAT={-:-/ absolute / inch / decimal}
FMAT,2
INCH,TZ
T1C0.025
T2C0.031
T3C0.032
T4C0.039
T5C0.047
%
G90
G05
M72
T1
X7.45Y-4.
X7.45Y-4.2
X7.45Y-4.35
T2
X5.65Y-5.4
X5.75Y-4.15
X6.15Y-5.4
X6.25Y-4.15
X6.35Y-4.35
X6.35Y-4.6
X6.35Y-4.85
X6.35Y-5.05
X6.35Y-5.15
X6.35Y-5.25
X6.35Y-5.35
X6.65Y-5.05
X6.65Y-5.15
X6.65Y-5.25
X6.65Y-5.35
X6.85Y-4.35
X6.85Y-4.6
X6.85Y-4.85
X7.35Y-4.55
X7.35Y-4.65
X7.35Y-4.75
T3
X6.85Y-5.15
X6.85Y-5.35
X7.35Y-5.15
X7.35Y-5.35
T4
X5.95Y-5.15
X6.05Y-5.15
X6.15Y-5.15
X7.05Y-4.
X7.15Y-4.
X7.25Y-4.
T5
X7.05Y-4.4
X7.05Y-4.9
T0
M30
