G04 #@! TF.FileFunction,Legend,Top*
%FSLAX46Y46*%
G04 Gerber Fmt 4.6, Leading zero omitted, Abs format (unit mm)*
G04 Created by KiCad (PCBNEW 4.0.5) date 02/14/17 18:00:52*
%MOMM*%
%LPD*%
G01*
G04 APERTURE LIST*
%ADD10C,0.100000*%
%ADD11C,0.120000*%
%ADD12C,0.150000*%
G04 APERTURE END LIST*
D10*
D11*
X177210000Y-121970000D02*
X180930000Y-121970000D01*
X180930000Y-121970000D02*
X180930000Y-114250000D01*
X180930000Y-114250000D02*
X177210000Y-114250000D01*
X177210000Y-114250000D02*
X177210000Y-121970000D01*
X179070000Y-123080000D02*
X179070000Y-121970000D01*
X179070000Y-113140000D02*
X179070000Y-114250000D01*
X177210000Y-120770000D02*
X180930000Y-120770000D01*
X166100000Y-126880000D02*
G75*
G02X164100000Y-126880000I-1000000J0D01*
G01*
X164100000Y-126880000D02*
X162330000Y-126880000D01*
X162330000Y-126880000D02*
X162330000Y-137280000D01*
X162330000Y-137280000D02*
X167870000Y-137280000D01*
X167870000Y-137280000D02*
X167870000Y-126880000D01*
X167870000Y-126880000D02*
X166100000Y-126880000D01*
X159900000Y-126880000D02*
X159900000Y-137280000D01*
X159900000Y-137280000D02*
X170300000Y-137280000D01*
X170300000Y-137280000D02*
X170300000Y-126880000D01*
X170300000Y-126880000D02*
X159900000Y-126880000D01*
X180340000Y-102990000D02*
X185540000Y-102990000D01*
X185540000Y-102990000D02*
X185540000Y-100210000D01*
X185540000Y-100210000D02*
X180340000Y-100210000D01*
X180340000Y-100210000D02*
X180340000Y-102990000D01*
X179070000Y-102990000D02*
X177680000Y-102990000D01*
X177680000Y-102990000D02*
X177680000Y-101600000D01*
X190033219Y-110490000D02*
G75*
G03X190033219Y-110490000I-803219J0D01*
G01*
X190033219Y-106680000D02*
G75*
G03X190033219Y-106680000I-803219J0D01*
G01*
X190033219Y-101600000D02*
G75*
G03X190033219Y-101600000I-803219J0D01*
G01*
X188540000Y-119910000D02*
X188540000Y-116310000D01*
X187812795Y-120434184D02*
G75*
G03X188540000Y-119910000I-1122795J2324184D01*
G01*
X185591193Y-120466400D02*
G75*
G02X184090000Y-118110000I1098807J2356400D01*
G01*
X185591193Y-115753600D02*
G75*
G03X184090000Y-118110000I1098807J-2356400D01*
G01*
X187812795Y-115785816D02*
G75*
G02X188540000Y-116310000I-1122795J-2324184D01*
G01*
X163080000Y-121530000D02*
X163080000Y-124850000D01*
X163080000Y-124850000D02*
X172200000Y-124850000D01*
X172200000Y-124850000D02*
X172200000Y-121530000D01*
X172200000Y-121530000D02*
X163080000Y-121530000D01*
X162270000Y-123190000D02*
X163080000Y-123190000D01*
X173010000Y-123190000D02*
X172200000Y-123190000D01*
X145300000Y-135500000D02*
X145300000Y-138820000D01*
X145300000Y-138820000D02*
X154420000Y-138820000D01*
X154420000Y-138820000D02*
X154420000Y-135500000D01*
X154420000Y-135500000D02*
X145300000Y-135500000D01*
X144490000Y-137160000D02*
X145300000Y-137160000D01*
X155230000Y-137160000D02*
X154420000Y-137160000D01*
X147840000Y-103750000D02*
X147840000Y-107070000D01*
X147840000Y-107070000D02*
X156960000Y-107070000D01*
X156960000Y-107070000D02*
X156960000Y-103750000D01*
X156960000Y-103750000D02*
X147840000Y-103750000D01*
X147030000Y-105410000D02*
X147840000Y-105410000D01*
X157770000Y-105410000D02*
X156960000Y-105410000D01*
X163080000Y-115180000D02*
X163080000Y-118500000D01*
X163080000Y-118500000D02*
X172200000Y-118500000D01*
X172200000Y-118500000D02*
X172200000Y-115180000D01*
X172200000Y-115180000D02*
X163080000Y-115180000D01*
X162270000Y-116840000D02*
X163080000Y-116840000D01*
X173010000Y-116840000D02*
X172200000Y-116840000D01*
X163080000Y-108830000D02*
X163080000Y-112150000D01*
X163080000Y-112150000D02*
X172200000Y-112150000D01*
X172200000Y-112150000D02*
X172200000Y-108830000D01*
X172200000Y-108830000D02*
X163080000Y-108830000D01*
X162270000Y-110490000D02*
X163080000Y-110490000D01*
X173010000Y-110490000D02*
X172200000Y-110490000D01*
X148550000Y-127120000D02*
X158790000Y-127120000D01*
X148550000Y-111230000D02*
X158790000Y-111230000D01*
X148550000Y-111230000D02*
X148550000Y-127120000D01*
X158790000Y-111230000D02*
X158790000Y-127120000D01*
X151130000Y-127120000D02*
X151130000Y-129760000D01*
X153670000Y-127120000D02*
X153670000Y-129744000D01*
X156210000Y-127120000D02*
X156210000Y-129744000D01*
D12*
X184919050Y-133350000D02*
G75*
G03X184919050Y-133350000I-4579050J0D01*
G01*
X173990000Y-127000000D02*
X186690000Y-127000000D01*
X186690000Y-127000000D02*
X186690000Y-139700000D01*
X186690000Y-139700000D02*
X173990000Y-139700000D01*
X173990000Y-139700000D02*
X173990000Y-127000000D01*
X176662381Y-118848095D02*
X175662381Y-118848095D01*
X175662381Y-118610000D01*
X175710000Y-118467142D01*
X175805238Y-118371904D01*
X175900476Y-118324285D01*
X176090952Y-118276666D01*
X176233810Y-118276666D01*
X176424286Y-118324285D01*
X176519524Y-118371904D01*
X176614762Y-118467142D01*
X176662381Y-118610000D01*
X176662381Y-118848095D01*
X176662381Y-117324285D02*
X176662381Y-117895714D01*
X176662381Y-117610000D02*
X175662381Y-117610000D01*
X175805238Y-117705238D01*
X175900476Y-117800476D01*
X175948095Y-117895714D01*
X164123810Y-126332381D02*
X164123810Y-125332381D01*
X165171429Y-126237143D02*
X165123810Y-126284762D01*
X164980953Y-126332381D01*
X164885715Y-126332381D01*
X164742857Y-126284762D01*
X164647619Y-126189524D01*
X164600000Y-126094286D01*
X164552381Y-125903810D01*
X164552381Y-125760952D01*
X164600000Y-125570476D01*
X164647619Y-125475238D01*
X164742857Y-125380000D01*
X164885715Y-125332381D01*
X164980953Y-125332381D01*
X165123810Y-125380000D01*
X165171429Y-125427619D01*
X166123810Y-126332381D02*
X165552381Y-126332381D01*
X165838095Y-126332381D02*
X165838095Y-125332381D01*
X165742857Y-125475238D01*
X165647619Y-125570476D01*
X165552381Y-125618095D01*
X177132381Y-102719047D02*
X177132381Y-103195238D01*
X176132381Y-103195238D01*
X176608571Y-102385714D02*
X176608571Y-102052380D01*
X177132381Y-101909523D02*
X177132381Y-102385714D01*
X176132381Y-102385714D01*
X176132381Y-101909523D01*
X177132381Y-101480952D02*
X176132381Y-101480952D01*
X176132381Y-101242857D01*
X176180000Y-101099999D01*
X176275238Y-101004761D01*
X176370476Y-100957142D01*
X176560952Y-100909523D01*
X176703810Y-100909523D01*
X176894286Y-100957142D01*
X176989524Y-101004761D01*
X177084762Y-101099999D01*
X177132381Y-101242857D01*
X177132381Y-101480952D01*
X177132381Y-99957142D02*
X177132381Y-100528571D01*
X177132381Y-100242857D02*
X176132381Y-100242857D01*
X176275238Y-100338095D01*
X176370476Y-100433333D01*
X176418095Y-100528571D01*
X188491905Y-109342381D02*
X188491905Y-108342381D01*
X188872858Y-108342381D01*
X188968096Y-108390000D01*
X189015715Y-108437619D01*
X189063334Y-108532857D01*
X189063334Y-108675714D01*
X189015715Y-108770952D01*
X188968096Y-108818571D01*
X188872858Y-108866190D01*
X188491905Y-108866190D01*
X190015715Y-109342381D02*
X189444286Y-109342381D01*
X189730000Y-109342381D02*
X189730000Y-108342381D01*
X189634762Y-108485238D01*
X189539524Y-108580476D01*
X189444286Y-108628095D01*
X188491905Y-105532381D02*
X188491905Y-104532381D01*
X188872858Y-104532381D01*
X188968096Y-104580000D01*
X189015715Y-104627619D01*
X189063334Y-104722857D01*
X189063334Y-104865714D01*
X189015715Y-104960952D01*
X188968096Y-105008571D01*
X188872858Y-105056190D01*
X188491905Y-105056190D01*
X189444286Y-104627619D02*
X189491905Y-104580000D01*
X189587143Y-104532381D01*
X189825239Y-104532381D01*
X189920477Y-104580000D01*
X189968096Y-104627619D01*
X190015715Y-104722857D01*
X190015715Y-104818095D01*
X189968096Y-104960952D01*
X189396667Y-105532381D01*
X190015715Y-105532381D01*
X188491905Y-100452381D02*
X188491905Y-99452381D01*
X188872858Y-99452381D01*
X188968096Y-99500000D01*
X189015715Y-99547619D01*
X189063334Y-99642857D01*
X189063334Y-99785714D01*
X189015715Y-99880952D01*
X188968096Y-99928571D01*
X188872858Y-99976190D01*
X188491905Y-99976190D01*
X189396667Y-99452381D02*
X190015715Y-99452381D01*
X189682381Y-99833333D01*
X189825239Y-99833333D01*
X189920477Y-99880952D01*
X189968096Y-99928571D01*
X190015715Y-100023810D01*
X190015715Y-100261905D01*
X189968096Y-100357143D01*
X189920477Y-100404762D01*
X189825239Y-100452381D01*
X189539524Y-100452381D01*
X189444286Y-100404762D01*
X189396667Y-100357143D01*
X183681619Y-118205238D02*
X183634000Y-118300476D01*
X183538762Y-118395714D01*
X183395905Y-118538571D01*
X183348286Y-118633810D01*
X183348286Y-118729048D01*
X183586381Y-118681429D02*
X183538762Y-118776667D01*
X183443524Y-118871905D01*
X183253048Y-118919524D01*
X182919714Y-118919524D01*
X182729238Y-118871905D01*
X182634000Y-118776667D01*
X182586381Y-118681429D01*
X182586381Y-118490952D01*
X182634000Y-118395714D01*
X182729238Y-118300476D01*
X182919714Y-118252857D01*
X183253048Y-118252857D01*
X183443524Y-118300476D01*
X183538762Y-118395714D01*
X183586381Y-118490952D01*
X183586381Y-118681429D01*
X183586381Y-117300476D02*
X183586381Y-117871905D01*
X183586381Y-117586191D02*
X182586381Y-117586191D01*
X182729238Y-117681429D01*
X182824476Y-117776667D01*
X182872095Y-117871905D01*
X167473334Y-120982381D02*
X167140000Y-120506190D01*
X166901905Y-120982381D02*
X166901905Y-119982381D01*
X167282858Y-119982381D01*
X167378096Y-120030000D01*
X167425715Y-120077619D01*
X167473334Y-120172857D01*
X167473334Y-120315714D01*
X167425715Y-120410952D01*
X167378096Y-120458571D01*
X167282858Y-120506190D01*
X166901905Y-120506190D01*
X168425715Y-120982381D02*
X167854286Y-120982381D01*
X168140000Y-120982381D02*
X168140000Y-119982381D01*
X168044762Y-120125238D01*
X167949524Y-120220476D01*
X167854286Y-120268095D01*
X149693334Y-134952381D02*
X149360000Y-134476190D01*
X149121905Y-134952381D02*
X149121905Y-133952381D01*
X149502858Y-133952381D01*
X149598096Y-134000000D01*
X149645715Y-134047619D01*
X149693334Y-134142857D01*
X149693334Y-134285714D01*
X149645715Y-134380952D01*
X149598096Y-134428571D01*
X149502858Y-134476190D01*
X149121905Y-134476190D01*
X150074286Y-134047619D02*
X150121905Y-134000000D01*
X150217143Y-133952381D01*
X150455239Y-133952381D01*
X150550477Y-134000000D01*
X150598096Y-134047619D01*
X150645715Y-134142857D01*
X150645715Y-134238095D01*
X150598096Y-134380952D01*
X150026667Y-134952381D01*
X150645715Y-134952381D01*
X152233334Y-103202381D02*
X151900000Y-102726190D01*
X151661905Y-103202381D02*
X151661905Y-102202381D01*
X152042858Y-102202381D01*
X152138096Y-102250000D01*
X152185715Y-102297619D01*
X152233334Y-102392857D01*
X152233334Y-102535714D01*
X152185715Y-102630952D01*
X152138096Y-102678571D01*
X152042858Y-102726190D01*
X151661905Y-102726190D01*
X152566667Y-102202381D02*
X153185715Y-102202381D01*
X152852381Y-102583333D01*
X152995239Y-102583333D01*
X153090477Y-102630952D01*
X153138096Y-102678571D01*
X153185715Y-102773810D01*
X153185715Y-103011905D01*
X153138096Y-103107143D01*
X153090477Y-103154762D01*
X152995239Y-103202381D01*
X152709524Y-103202381D01*
X152614286Y-103154762D01*
X152566667Y-103107143D01*
X167473334Y-114632381D02*
X167140000Y-114156190D01*
X166901905Y-114632381D02*
X166901905Y-113632381D01*
X167282858Y-113632381D01*
X167378096Y-113680000D01*
X167425715Y-113727619D01*
X167473334Y-113822857D01*
X167473334Y-113965714D01*
X167425715Y-114060952D01*
X167378096Y-114108571D01*
X167282858Y-114156190D01*
X166901905Y-114156190D01*
X168330477Y-113965714D02*
X168330477Y-114632381D01*
X168092381Y-113584762D02*
X167854286Y-114299048D01*
X168473334Y-114299048D01*
X167473334Y-108282381D02*
X167140000Y-107806190D01*
X166901905Y-108282381D02*
X166901905Y-107282381D01*
X167282858Y-107282381D01*
X167378096Y-107330000D01*
X167425715Y-107377619D01*
X167473334Y-107472857D01*
X167473334Y-107615714D01*
X167425715Y-107710952D01*
X167378096Y-107758571D01*
X167282858Y-107806190D01*
X166901905Y-107806190D01*
X168378096Y-107282381D02*
X167901905Y-107282381D01*
X167854286Y-107758571D01*
X167901905Y-107710952D01*
X167997143Y-107663333D01*
X168235239Y-107663333D01*
X168330477Y-107710952D01*
X168378096Y-107758571D01*
X168425715Y-107853810D01*
X168425715Y-108091905D01*
X168378096Y-108187143D01*
X168330477Y-108234762D01*
X168235239Y-108282381D01*
X167997143Y-108282381D01*
X167901905Y-108234762D01*
X167854286Y-108187143D01*
X152908095Y-109682381D02*
X152908095Y-110491905D01*
X152955714Y-110587143D01*
X153003333Y-110634762D01*
X153098571Y-110682381D01*
X153289048Y-110682381D01*
X153384286Y-110634762D01*
X153431905Y-110587143D01*
X153479524Y-110491905D01*
X153479524Y-109682381D01*
X154479524Y-110682381D02*
X153908095Y-110682381D01*
X154193809Y-110682381D02*
X154193809Y-109682381D01*
X154098571Y-109825238D01*
X154003333Y-109920476D01*
X153908095Y-109968095D01*
X179578095Y-132040381D02*
X179578095Y-132849905D01*
X179625714Y-132945143D01*
X179673333Y-132992762D01*
X179768571Y-133040381D01*
X179959048Y-133040381D01*
X180054286Y-132992762D01*
X180101905Y-132945143D01*
X180149524Y-132849905D01*
X180149524Y-132040381D01*
X180578095Y-132135619D02*
X180625714Y-132088000D01*
X180720952Y-132040381D01*
X180959048Y-132040381D01*
X181054286Y-132088000D01*
X181101905Y-132135619D01*
X181149524Y-132230857D01*
X181149524Y-132326095D01*
X181101905Y-132468952D01*
X180530476Y-133040381D01*
X181149524Y-133040381D01*
M02*
