G04 #@! TF.FileFunction,Copper,L1,Top,Signal*
%FSLAX46Y46*%
G04 Gerber Fmt 4.6, Leading zero omitted, Abs format (unit mm)*
G04 Created by KiCad (PCBNEW 4.0.5) date 02/14/17 18:00:51*
%MOMM*%
%LPD*%
G01*
G04 APERTURE LIST*
%ADD10C,0.100000*%
%ADD11R,2.400000X2.400000*%
%ADD12O,2.400000X2.400000*%
%ADD13R,1.600000X1.600000*%
%ADD14O,1.600000X1.600000*%
%ADD15R,1.700000X1.700000*%
%ADD16O,1.700000X1.700000*%
%ADD17C,1.143000*%
%ADD18C,1.524000*%
%ADD19R,1.524000X1.524000*%
%ADD20C,1.600000*%
%ADD21R,1.800000X1.800000*%
%ADD22O,1.800000X1.800000*%
%ADD23O,3.048000X1.727200*%
%ADD24C,0.250000*%
G04 APERTURE END LIST*
D10*
D11*
X179070000Y-124460000D03*
D12*
X179070000Y-111760000D03*
D13*
X161290000Y-128270000D03*
D14*
X168910000Y-135890000D03*
X161290000Y-130810000D03*
X168910000Y-133350000D03*
X161290000Y-133350000D03*
X168910000Y-130810000D03*
X161290000Y-135890000D03*
X168910000Y-128270000D03*
D15*
X179070000Y-101600000D03*
D16*
X181610000Y-101600000D03*
X184150000Y-101600000D03*
D17*
X189230000Y-110490000D03*
X189230000Y-106680000D03*
X189230000Y-101600000D03*
D18*
X186690000Y-118110000D03*
X186690000Y-115570000D03*
D19*
X186690000Y-120650000D03*
D20*
X161290000Y-123190000D03*
D14*
X173990000Y-123190000D03*
D20*
X143510000Y-137160000D03*
D14*
X156210000Y-137160000D03*
D20*
X146050000Y-105410000D03*
D14*
X158750000Y-105410000D03*
D20*
X161290000Y-116840000D03*
D14*
X173990000Y-116840000D03*
D20*
X161290000Y-110490000D03*
D14*
X173990000Y-110490000D03*
D21*
X151130000Y-130810000D03*
D22*
X153670000Y-130810000D03*
X156210000Y-130810000D03*
D23*
X186690000Y-130810000D03*
X186690000Y-135890000D03*
X173990000Y-130810000D03*
X173990000Y-135890000D03*
D24*
X176274700Y-123190000D02*
X177544700Y-124460000D01*
X173990000Y-123190000D02*
X176274700Y-123190000D01*
X179070000Y-124460000D02*
X177544700Y-124460000D01*
X184405300Y-120650000D02*
X180595300Y-124460000D01*
X186690000Y-120650000D02*
X184405300Y-120650000D01*
X179070000Y-124460000D02*
X180595300Y-124460000D01*
X166659400Y-129395300D02*
X167784700Y-128270000D01*
X158850000Y-129395300D02*
X166659400Y-129395300D01*
X157435300Y-130810000D02*
X158850000Y-129395300D01*
X156210000Y-130810000D02*
X157435300Y-130810000D01*
X168910000Y-128270000D02*
X167784700Y-128270000D01*
X154984700Y-131269500D02*
X154984700Y-130810000D01*
X149094200Y-137160000D02*
X154984700Y-131269500D01*
X143510000Y-137160000D02*
X149094200Y-137160000D01*
X156210000Y-130810000D02*
X154984700Y-130810000D01*
X166514700Y-116840000D02*
X161290000Y-116840000D01*
X172864700Y-110490000D02*
X166514700Y-116840000D01*
X173990000Y-110490000D02*
X172864700Y-110490000D01*
X171251200Y-123190000D02*
X161290000Y-123190000D01*
X183951200Y-110490000D02*
X171251200Y-123190000D01*
X189230000Y-110490000D02*
X183951200Y-110490000D01*
X160164700Y-134330600D02*
X160164700Y-133350000D01*
X157335300Y-137160000D02*
X160164700Y-134330600D01*
X156210000Y-137160000D02*
X157335300Y-137160000D01*
X161290000Y-133350000D02*
X160164700Y-133350000D01*
X173990000Y-116840000D02*
X172864700Y-116840000D01*
X171726900Y-117977800D02*
X151130000Y-117977800D01*
X172864700Y-116840000D02*
X171726900Y-117977800D01*
X151130000Y-130810000D02*
X151130000Y-117977800D01*
X151130000Y-110490000D02*
X146050000Y-105410000D01*
X151130000Y-117977800D02*
X151130000Y-110490000D01*
X173990000Y-130810000D02*
X186690000Y-130810000D01*
X173990000Y-135890000D02*
X168910000Y-135890000D01*
X186690000Y-135890000D02*
X173990000Y-135890000D01*
X185420000Y-105410000D02*
X189230000Y-101600000D01*
X158750000Y-105410000D02*
X185420000Y-105410000D01*
M02*
