G04 #@! TF.FileFunction,Copper,L2,Bot,Signal*
%FSLAX46Y46*%
G04 Gerber Fmt 4.6, Leading zero omitted, Abs format (unit mm)*
G04 Created by KiCad (PCBNEW 4.0.5) date 02/14/17 18:00:52*
%MOMM*%
%LPD*%
G01*
G04 APERTURE LIST*
%ADD10C,0.100000*%
%ADD11R,2.400000X2.400000*%
%ADD12O,2.400000X2.400000*%
%ADD13R,1.600000X1.600000*%
%ADD14O,1.600000X1.600000*%
%ADD15R,1.700000X1.700000*%
%ADD16O,1.700000X1.700000*%
%ADD17C,1.143000*%
%ADD18C,1.524000*%
%ADD19R,1.524000X1.524000*%
%ADD20C,1.600000*%
%ADD21R,1.800000X1.800000*%
%ADD22O,1.800000X1.800000*%
%ADD23O,3.048000X1.727200*%
%ADD24C,0.250000*%
G04 APERTURE END LIST*
D10*
D11*
X179070000Y-124460000D03*
D12*
X179070000Y-111760000D03*
D13*
X161290000Y-128270000D03*
D14*
X168910000Y-135890000D03*
X161290000Y-130810000D03*
X168910000Y-133350000D03*
X161290000Y-133350000D03*
X168910000Y-130810000D03*
X161290000Y-135890000D03*
X168910000Y-128270000D03*
D15*
X179070000Y-101600000D03*
D16*
X181610000Y-101600000D03*
X184150000Y-101600000D03*
D17*
X189230000Y-110490000D03*
X189230000Y-106680000D03*
X189230000Y-101600000D03*
D18*
X186690000Y-118110000D03*
X186690000Y-115570000D03*
D19*
X186690000Y-120650000D03*
D20*
X161290000Y-123190000D03*
D14*
X173990000Y-123190000D03*
D20*
X143510000Y-137160000D03*
D14*
X156210000Y-137160000D03*
D20*
X146050000Y-105410000D03*
D14*
X158750000Y-105410000D03*
D20*
X161290000Y-116840000D03*
D14*
X173990000Y-116840000D03*
D20*
X161290000Y-110490000D03*
D14*
X173990000Y-110490000D03*
D21*
X151130000Y-130810000D03*
D22*
X153670000Y-130810000D03*
X156210000Y-130810000D03*
D23*
X186690000Y-130810000D03*
X186690000Y-135890000D03*
X173990000Y-130810000D03*
X173990000Y-135890000D03*
D24*
X168910000Y-112935300D02*
X168910000Y-128270000D01*
X179070000Y-102775300D02*
X168910000Y-112935300D01*
X179070000Y-101600000D02*
X179070000Y-102775300D01*
X161008600Y-134764700D02*
X161290000Y-134764700D01*
X160164700Y-133920800D02*
X161008600Y-134764700D01*
X160164700Y-117965300D02*
X160164700Y-133920800D01*
X161290000Y-116840000D02*
X160164700Y-117965300D01*
X161290000Y-135890000D02*
X161290000Y-134764700D01*
X180579400Y-102775300D02*
X181610000Y-102775300D01*
X173990000Y-109364700D02*
X180579400Y-102775300D01*
X173990000Y-110490000D02*
X173990000Y-109364700D01*
X181610000Y-101600000D02*
X181610000Y-102775300D01*
X186690000Y-108791500D02*
X187158100Y-108323400D01*
X186690000Y-115570000D02*
X186690000Y-108791500D01*
X187586600Y-108323400D02*
X187158100Y-108323400D01*
X189230000Y-106680000D02*
X187586600Y-108323400D01*
X187158100Y-108323400D02*
X181610000Y-102775300D01*
X161993400Y-129684700D02*
X161290000Y-129684700D01*
X162415300Y-129262800D02*
X161993400Y-129684700D01*
X162415300Y-116093900D02*
X162415300Y-129262800D01*
X178089300Y-100419900D02*
X162415300Y-116093900D01*
X182161900Y-100419900D02*
X178089300Y-100419900D01*
X182974700Y-101232700D02*
X182161900Y-100419900D01*
X182974700Y-101600000D02*
X182974700Y-101232700D01*
X184150000Y-101600000D02*
X182974700Y-101600000D01*
X161290000Y-130810000D02*
X161290000Y-129684700D01*
X180719500Y-118110000D02*
X186690000Y-118110000D01*
X169208500Y-129621000D02*
X180719500Y-118110000D01*
X166144300Y-129621000D02*
X169208500Y-129621000D01*
X162415300Y-133350000D02*
X166144300Y-129621000D01*
X161290000Y-133350000D02*
X162415300Y-133350000D01*
X158750000Y-124504700D02*
X158750000Y-105410000D01*
X153670000Y-129584700D02*
X158750000Y-124504700D01*
X153670000Y-130810000D02*
X153670000Y-129584700D01*
M02*
